<svg width="24" height="24" viewBox="0 0 24 24" fill="none" xmlns="http://www.w3.org/2000/svg">
<path d="M14 4.05566L14.0068 4.23633C14.037 4.65649 14.1712 5.06359 14.3994 5.41992C14.6604 5.82725 15.0332 6.15131 15.4727 6.35352L15.4844 6.35938L15.4961 6.36426L16.25 6.69922V6.7002C16.7886 6.9418 17.2173 7.376 17.4512 7.91797L17.4551 7.92676L17.7021 8.49219V8.49121C17.894 8.93449 18.21 9.31294 18.6123 9.58105C19.0206 9.85309 19.4998 9.99868 19.9902 10.001V18C19.9902 19.0999 19.0901 19.9999 17.9902 20H11.2695L6.50977 22.8604C6.35982 22.9502 6.16988 23 6 23C5.83 23 5.65977 22.9601 5.50977 22.8701C5.18984 22.6901 5 22.36 5 22V20H2C0.9 20 0 19.1 0 18V6C0 4.9 0.9 4 2 4H14.002L14 4.05566ZM6 8C4.9 8 4 8.9 4 10V14C4 15.1 4.9 16 6 16H9V14H6V10H9V8H6ZM13 8C11.9 8 11 8.9 11 10V14C11 15.1 11.9 16 13 16H16V14H13V10H16V8H13ZM18.7744 6.24512C18.7886 6.26411 18.8035 6.28253 18.8174 6.30176C18.8035 6.28254 18.7886 6.2641 18.7744 6.24512ZM18.5752 5.99512C18.5867 6.00837 18.598 6.02176 18.6094 6.03516C18.598 6.02175 18.5867 6.00839 18.5752 5.99512ZM18.3301 5.73535C18.3411 5.74613 18.3524 5.75668 18.3633 5.76758C18.3524 5.75668 18.3411 5.74613 18.3301 5.73535Z" fill="black"/>
<path d="M19.5315 0.316871C19.5694 0.22325 19.6344 0.143072 19.7181 0.0866166C19.8018 0.030161 19.9005 0 20.0015 0C20.1025 0 20.2012 0.030161 20.2849 0.0866166C20.3687 0.143072 20.4336 0.22325 20.4715 0.316871L20.7255 0.928871C21.1502 1.96357 21.9555 2.79604 22.9755 3.25487L23.6935 3.57487C23.7853 3.61735 23.863 3.68521 23.9175 3.77044C23.972 3.85568 24.0009 3.95472 24.0009 4.05587C24.0009 4.15702 23.972 4.25607 23.9175 4.3413C23.863 4.42653 23.7853 4.49439 23.6935 4.53687L22.9335 4.87487C21.9389 5.3212 21.1475 6.12395 20.7155 7.12487L20.4685 7.69087C20.4301 7.78304 20.3652 7.86177 20.2821 7.91714C20.199 7.97252 20.1014 8.00207 20.0015 8.00207C19.9016 8.00207 19.804 7.97252 19.7209 7.91714C19.6378 7.86177 19.573 7.78304 19.5345 7.69087L19.2875 7.12587C18.8554 6.1244 18.0637 5.32124 17.0685 4.87487L16.3085 4.53687C16.2164 4.49451 16.1384 4.42664 16.0837 4.3413C16.0291 4.25596 16 4.15673 16 4.05537C16 3.95401 16.0291 3.85478 16.0837 3.76944C16.1384 3.6841 16.2164 3.61623 16.3085 3.57387L17.0265 3.25387C18.0467 2.79549 18.8524 1.96338 19.2775 0.928871L19.5315 0.316871Z" fill="black"/>
</svg>
